<svg xmlns="http://www.w3.org/2000/svg" version="1.1" xmlns:xlink="http://www.w3.org/1999/xlink" xmlns:svgjs="http://svgjs.dev/svgjs" width="1440" height="560" preserveAspectRatio="none" viewBox="0 0 1440 560"><g mask="url(&quot;#SvgjsMask1000&quot;)" fill="none"><rect width="1440" height="560" x="0" y="0" fill="#0e2a47"></rect><path d="M76.18 55.57L141.14 93.07L141.14 168.07L76.18 205.57L11.23 168.07L11.23 93.07zM76.18 280.57L141.14 318.07L141.14 393.07L76.18 430.57L11.23 393.07L11.23 318.07zM11.23 393.07L76.18 430.57L76.18 505.57L11.23 543.07L-53.72 505.57L-53.72 430.57zM76.18 505.57L141.14 543.07L141.14 618.07L76.18 655.57L11.23 618.07L11.23 543.07zM206.09 55.57L271.05 93.07L271.05 168.07L206.09 205.57L141.14 168.07L141.14 93.07zM271.05 -56.93L336 -19.43L336 55.57L271.05 93.07L206.09 55.57L206.09 -19.43zM336 280.57L400.95 318.07L400.95 393.07L336 430.57L271.05 393.07L271.05 318.07zM271.05 393.07L336 430.57L336 505.57L271.05 543.07L206.09 505.57L206.09 430.57zM465.91 55.57L530.86 93.07L530.86 168.07L465.91 205.57L400.95 168.07L400.95 93.07zM400.95 168.07L465.91 205.57L465.91 280.57L400.95 318.07L336 280.57L336 205.57zM465.91 280.57L530.86 318.07L530.86 393.07L465.91 430.57L400.95 393.07L400.95 318.07zM400.95 393.07L465.91 430.57L465.91 505.57L400.95 543.07L336 505.57L336 430.57zM465.91 505.57L530.86 543.07L530.86 618.07L465.91 655.57L400.95 618.07L400.95 543.07zM530.86 -56.93L595.81 -19.43L595.81 55.57L530.86 93.07L465.91 55.57L465.91 -19.43zM595.81 55.57L660.77 93.07L660.77 168.07L595.81 205.57L530.86 168.07L530.86 93.07zM530.86 168.07L595.81 205.57L595.81 280.57L530.86 318.07L465.91 280.57L465.91 205.57zM595.81 505.57L660.77 543.07L660.77 618.07L595.81 655.57L530.86 618.07L530.86 543.07zM660.77 -56.93L725.72 -19.43L725.72 55.57L660.77 93.07L595.81 55.57L595.81 -19.43zM660.77 168.07L725.72 205.57L725.72 280.57L660.77 318.07L595.81 280.57L595.81 205.57zM725.72 280.57L790.68 318.07L790.68 393.07L725.72 430.57L660.77 393.07L660.77 318.07zM660.77 393.07L725.72 430.57L725.72 505.57L660.77 543.07L595.81 505.57L595.81 430.57zM790.67 -56.93L855.63 -19.43L855.63 55.57L790.67 93.07L725.72 55.57L725.72 -19.43zM790.67 168.07L855.63 205.57L855.63 280.57L790.67 318.07L725.72 280.57L725.72 205.57zM790.67 393.07L855.63 430.57L855.63 505.57L790.67 543.07L725.72 505.57L725.72 430.57zM855.63 505.57L920.58 543.07L920.58 618.07L855.63 655.57L790.67 618.07L790.67 543.07zM920.58 -56.93L985.54 -19.43L985.54 55.57L920.58 93.07L855.63 55.57L855.63 -19.43zM985.54 280.57L1050.49 318.07L1050.49 393.07L985.54 430.57L920.58 393.07L920.58 318.07zM985.54 505.57L1050.49 543.07L1050.49 618.07L985.54 655.57L920.58 618.07L920.58 543.07zM1115.44 280.57L1180.4 318.07L1180.4 393.07L1115.44 430.57L1050.49 393.07L1050.49 318.07zM1180.4 -56.93L1245.35 -19.43L1245.35 55.57L1180.4 93.07L1115.44 55.57L1115.44 -19.43zM1180.4 168.07L1245.35 205.57L1245.35 280.57L1180.4 318.07L1115.44 280.57L1115.44 205.57zM1180.4 393.07L1245.35 430.57L1245.35 505.57L1180.4 543.07L1115.44 505.57L1115.44 430.57zM1245.35 505.57L1310.3 543.07L1310.3 618.07L1245.35 655.57L1180.4 618.07L1180.4 543.07zM1310.31 -56.93L1375.26 -19.43L1375.26 55.57L1310.31 93.07L1245.35 55.57L1245.35 -19.43zM1375.26 505.57L1440.21 543.07L1440.21 618.07L1375.26 655.57L1310.31 618.07L1310.31 543.07zM1440.21 -56.93L1505.17 -19.43L1505.17 55.57L1440.21 93.07L1375.26 55.57L1375.26 -19.43z" stroke="#03305d" stroke-width="2"></path><path d="M68.68 55.57 a7.5 7.5 0 1 0 15 0 a7.5 7.5 0 1 0 -15 0zM133.64 93.07 a7.5 7.5 0 1 0 15 0 a7.5 7.5 0 1 0 -15 0zM133.64 168.07 a7.5 7.5 0 1 0 15 0 a7.5 7.5 0 1 0 -15 0zM68.68 205.57 a7.5 7.5 0 1 0 15 0 a7.5 7.5 0 1 0 -15 0zM3.73 168.07 a7.5 7.5 0 1 0 15 0 a7.5 7.5 0 1 0 -15 0zM3.73 93.07 a7.5 7.5 0 1 0 15 0 a7.5 7.5 0 1 0 -15 0zM68.68 280.57 a7.5 7.5 0 1 0 15 0 a7.5 7.5 0 1 0 -15 0zM133.64 318.07 a7.5 7.5 0 1 0 15 0 a7.5 7.5 0 1 0 -15 0zM133.64 393.07 a7.5 7.5 0 1 0 15 0 a7.5 7.5 0 1 0 -15 0zM68.68 430.57 a7.5 7.5 0 1 0 15 0 a7.5 7.5 0 1 0 -15 0zM3.73 393.07 a7.5 7.5 0 1 0 15 0 a7.5 7.5 0 1 0 -15 0zM3.73 318.07 a7.5 7.5 0 1 0 15 0 a7.5 7.5 0 1 0 -15 0zM68.68 505.57 a7.5 7.5 0 1 0 15 0 a7.5 7.5 0 1 0 -15 0zM3.73 543.07 a7.5 7.5 0 1 0 15 0 a7.5 7.5 0 1 0 -15 0zM-61.22 505.57 a7.5 7.5 0 1 0 15 0 a7.5 7.5 0 1 0 -15 0zM-61.22 430.57 a7.5 7.5 0 1 0 15 0 a7.5 7.5 0 1 0 -15 0zM133.64 543.07 a7.5 7.5 0 1 0 15 0 a7.5 7.5 0 1 0 -15 0zM133.64 618.07 a7.5 7.5 0 1 0 15 0 a7.5 7.5 0 1 0 -15 0zM68.68 655.57 a7.5 7.5 0 1 0 15 0 a7.5 7.5 0 1 0 -15 0zM3.73 618.07 a7.5 7.5 0 1 0 15 0 a7.5 7.5 0 1 0 -15 0zM198.59 55.57 a7.5 7.5 0 1 0 15 0 a7.5 7.5 0 1 0 -15 0zM263.55 93.07 a7.5 7.5 0 1 0 15 0 a7.5 7.5 0 1 0 -15 0zM263.55 168.07 a7.5 7.5 0 1 0 15 0 a7.5 7.5 0 1 0 -15 0zM198.59 205.57 a7.5 7.5 0 1 0 15 0 a7.5 7.5 0 1 0 -15 0zM263.55 -56.93 a7.5 7.5 0 1 0 15 0 a7.5 7.5 0 1 0 -15 0zM328.5 -19.43 a7.5 7.5 0 1 0 15 0 a7.5 7.5 0 1 0 -15 0zM328.5 55.57 a7.5 7.5 0 1 0 15 0 a7.5 7.5 0 1 0 -15 0zM198.59 -19.43 a7.5 7.5 0 1 0 15 0 a7.5 7.5 0 1 0 -15 0zM328.5 280.57 a7.5 7.5 0 1 0 15 0 a7.5 7.5 0 1 0 -15 0zM393.45 318.07 a7.5 7.5 0 1 0 15 0 a7.5 7.5 0 1 0 -15 0zM393.45 393.07 a7.5 7.5 0 1 0 15 0 a7.5 7.5 0 1 0 -15 0zM328.5 430.57 a7.5 7.5 0 1 0 15 0 a7.5 7.5 0 1 0 -15 0zM263.55 393.07 a7.5 7.5 0 1 0 15 0 a7.5 7.5 0 1 0 -15 0zM263.55 318.07 a7.5 7.5 0 1 0 15 0 a7.5 7.5 0 1 0 -15 0zM328.5 505.57 a7.5 7.5 0 1 0 15 0 a7.5 7.5 0 1 0 -15 0zM263.55 543.07 a7.5 7.5 0 1 0 15 0 a7.5 7.5 0 1 0 -15 0zM198.59 505.57 a7.5 7.5 0 1 0 15 0 a7.5 7.5 0 1 0 -15 0zM198.59 430.57 a7.5 7.5 0 1 0 15 0 a7.5 7.5 0 1 0 -15 0zM458.41 55.57 a7.5 7.5 0 1 0 15 0 a7.5 7.5 0 1 0 -15 0zM523.36 93.07 a7.5 7.5 0 1 0 15 0 a7.5 7.5 0 1 0 -15 0zM523.36 168.07 a7.5 7.5 0 1 0 15 0 a7.5 7.5 0 1 0 -15 0zM458.41 205.57 a7.5 7.5 0 1 0 15 0 a7.5 7.5 0 1 0 -15 0zM393.45 168.07 a7.5 7.5 0 1 0 15 0 a7.5 7.5 0 1 0 -15 0zM393.45 93.07 a7.5 7.5 0 1 0 15 0 a7.5 7.5 0 1 0 -15 0zM458.41 280.57 a7.5 7.5 0 1 0 15 0 a7.5 7.5 0 1 0 -15 0zM328.5 205.57 a7.5 7.5 0 1 0 15 0 a7.5 7.5 0 1 0 -15 0zM523.36 318.07 a7.5 7.5 0 1 0 15 0 a7.5 7.5 0 1 0 -15 0zM523.36 393.07 a7.5 7.5 0 1 0 15 0 a7.5 7.5 0 1 0 -15 0zM458.41 430.57 a7.5 7.5 0 1 0 15 0 a7.5 7.5 0 1 0 -15 0zM458.41 505.57 a7.5 7.5 0 1 0 15 0 a7.5 7.5 0 1 0 -15 0zM393.45 543.07 a7.5 7.5 0 1 0 15 0 a7.5 7.5 0 1 0 -15 0zM523.36 543.07 a7.5 7.5 0 1 0 15 0 a7.5 7.5 0 1 0 -15 0zM523.36 618.07 a7.5 7.5 0 1 0 15 0 a7.5 7.5 0 1 0 -15 0zM458.41 655.57 a7.5 7.5 0 1 0 15 0 a7.5 7.5 0 1 0 -15 0zM393.45 618.07 a7.5 7.5 0 1 0 15 0 a7.5 7.5 0 1 0 -15 0zM523.36 -56.93 a7.5 7.5 0 1 0 15 0 a7.5 7.5 0 1 0 -15 0zM588.31 -19.43 a7.5 7.5 0 1 0 15 0 a7.5 7.5 0 1 0 -15 0zM588.31 55.57 a7.5 7.5 0 1 0 15 0 a7.5 7.5 0 1 0 -15 0zM458.41 -19.43 a7.5 7.5 0 1 0 15 0 a7.5 7.5 0 1 0 -15 0zM653.27 93.07 a7.5 7.5 0 1 0 15 0 a7.5 7.5 0 1 0 -15 0zM653.27 168.07 a7.5 7.5 0 1 0 15 0 a7.5 7.5 0 1 0 -15 0zM588.31 205.57 a7.5 7.5 0 1 0 15 0 a7.5 7.5 0 1 0 -15 0zM588.31 280.57 a7.5 7.5 0 1 0 15 0 a7.5 7.5 0 1 0 -15 0zM588.31 505.57 a7.5 7.5 0 1 0 15 0 a7.5 7.5 0 1 0 -15 0zM653.27 543.07 a7.5 7.5 0 1 0 15 0 a7.5 7.5 0 1 0 -15 0zM653.27 618.07 a7.5 7.5 0 1 0 15 0 a7.5 7.5 0 1 0 -15 0zM588.31 655.57 a7.5 7.5 0 1 0 15 0 a7.5 7.5 0 1 0 -15 0zM653.27 -56.93 a7.5 7.5 0 1 0 15 0 a7.5 7.5 0 1 0 -15 0zM718.22 -19.43 a7.5 7.5 0 1 0 15 0 a7.5 7.5 0 1 0 -15 0zM718.22 55.57 a7.5 7.5 0 1 0 15 0 a7.5 7.5 0 1 0 -15 0zM718.22 205.57 a7.5 7.5 0 1 0 15 0 a7.5 7.5 0 1 0 -15 0zM718.22 280.57 a7.5 7.5 0 1 0 15 0 a7.5 7.5 0 1 0 -15 0zM653.27 318.07 a7.5 7.5 0 1 0 15 0 a7.5 7.5 0 1 0 -15 0zM783.18 318.07 a7.5 7.5 0 1 0 15 0 a7.5 7.5 0 1 0 -15 0zM783.18 393.07 a7.5 7.5 0 1 0 15 0 a7.5 7.5 0 1 0 -15 0zM718.22 430.57 a7.5 7.5 0 1 0 15 0 a7.5 7.5 0 1 0 -15 0zM653.27 393.07 a7.5 7.5 0 1 0 15 0 a7.5 7.5 0 1 0 -15 0zM718.22 505.57 a7.5 7.5 0 1 0 15 0 a7.5 7.5 0 1 0 -15 0zM588.31 430.57 a7.5 7.5 0 1 0 15 0 a7.5 7.5 0 1 0 -15 0zM783.17 -56.93 a7.5 7.5 0 1 0 15 0 a7.5 7.5 0 1 0 -15 0zM848.13 -19.43 a7.5 7.5 0 1 0 15 0 a7.5 7.5 0 1 0 -15 0zM848.13 55.57 a7.5 7.5 0 1 0 15 0 a7.5 7.5 0 1 0 -15 0zM783.17 93.07 a7.5 7.5 0 1 0 15 0 a7.5 7.5 0 1 0 -15 0zM783.17 168.07 a7.5 7.5 0 1 0 15 0 a7.5 7.5 0 1 0 -15 0zM848.13 205.57 a7.5 7.5 0 1 0 15 0 a7.5 7.5 0 1 0 -15 0zM848.13 280.57 a7.5 7.5 0 1 0 15 0 a7.5 7.5 0 1 0 -15 0zM783.17 318.07 a7.5 7.5 0 1 0 15 0 a7.5 7.5 0 1 0 -15 0zM783.17 393.07 a7.5 7.5 0 1 0 15 0 a7.5 7.5 0 1 0 -15 0zM848.13 430.57 a7.5 7.5 0 1 0 15 0 a7.5 7.5 0 1 0 -15 0zM848.13 505.57 a7.5 7.5 0 1 0 15 0 a7.5 7.5 0 1 0 -15 0zM783.17 543.07 a7.5 7.5 0 1 0 15 0 a7.5 7.5 0 1 0 -15 0zM913.08 543.07 a7.5 7.5 0 1 0 15 0 a7.5 7.5 0 1 0 -15 0zM913.08 618.07 a7.5 7.5 0 1 0 15 0 a7.5 7.5 0 1 0 -15 0zM848.13 655.57 a7.5 7.5 0 1 0 15 0 a7.5 7.5 0 1 0 -15 0zM783.17 618.07 a7.5 7.5 0 1 0 15 0 a7.5 7.5 0 1 0 -15 0zM913.08 -56.93 a7.5 7.5 0 1 0 15 0 a7.5 7.5 0 1 0 -15 0zM978.04 -19.43 a7.5 7.5 0 1 0 15 0 a7.5 7.5 0 1 0 -15 0zM978.04 55.57 a7.5 7.5 0 1 0 15 0 a7.5 7.5 0 1 0 -15 0zM913.08 93.07 a7.5 7.5 0 1 0 15 0 a7.5 7.5 0 1 0 -15 0zM978.04 280.57 a7.5 7.5 0 1 0 15 0 a7.5 7.5 0 1 0 -15 0zM1042.99 318.07 a7.5 7.5 0 1 0 15 0 a7.5 7.5 0 1 0 -15 0zM1042.99 393.07 a7.5 7.5 0 1 0 15 0 a7.5 7.5 0 1 0 -15 0zM978.04 430.57 a7.5 7.5 0 1 0 15 0 a7.5 7.5 0 1 0 -15 0zM913.08 393.07 a7.5 7.5 0 1 0 15 0 a7.5 7.5 0 1 0 -15 0zM913.08 318.07 a7.5 7.5 0 1 0 15 0 a7.5 7.5 0 1 0 -15 0zM978.04 505.57 a7.5 7.5 0 1 0 15 0 a7.5 7.5 0 1 0 -15 0zM1042.99 543.07 a7.5 7.5 0 1 0 15 0 a7.5 7.5 0 1 0 -15 0zM1042.99 618.07 a7.5 7.5 0 1 0 15 0 a7.5 7.5 0 1 0 -15 0zM978.04 655.57 a7.5 7.5 0 1 0 15 0 a7.5 7.5 0 1 0 -15 0zM1107.94 280.57 a7.5 7.5 0 1 0 15 0 a7.5 7.5 0 1 0 -15 0zM1172.9 318.07 a7.5 7.5 0 1 0 15 0 a7.5 7.5 0 1 0 -15 0zM1172.9 393.07 a7.5 7.5 0 1 0 15 0 a7.5 7.5 0 1 0 -15 0zM1107.94 430.57 a7.5 7.5 0 1 0 15 0 a7.5 7.5 0 1 0 -15 0zM1172.9 -56.93 a7.5 7.5 0 1 0 15 0 a7.5 7.5 0 1 0 -15 0zM1237.85 -19.43 a7.5 7.5 0 1 0 15 0 a7.5 7.5 0 1 0 -15 0zM1237.85 55.57 a7.5 7.5 0 1 0 15 0 a7.5 7.5 0 1 0 -15 0zM1172.9 93.07 a7.5 7.5 0 1 0 15 0 a7.5 7.5 0 1 0 -15 0zM1107.94 55.57 a7.5 7.5 0 1 0 15 0 a7.5 7.5 0 1 0 -15 0zM1107.94 -19.43 a7.5 7.5 0 1 0 15 0 a7.5 7.5 0 1 0 -15 0zM1172.9 168.07 a7.5 7.5 0 1 0 15 0 a7.5 7.5 0 1 0 -15 0zM1237.85 205.57 a7.5 7.5 0 1 0 15 0 a7.5 7.5 0 1 0 -15 0zM1237.85 280.57 a7.5 7.5 0 1 0 15 0 a7.5 7.5 0 1 0 -15 0zM1107.94 205.57 a7.5 7.5 0 1 0 15 0 a7.5 7.5 0 1 0 -15 0zM1237.85 430.57 a7.5 7.5 0 1 0 15 0 a7.5 7.5 0 1 0 -15 0zM1237.85 505.57 a7.5 7.5 0 1 0 15 0 a7.5 7.5 0 1 0 -15 0zM1172.9 543.07 a7.5 7.5 0 1 0 15 0 a7.5 7.5 0 1 0 -15 0zM1107.94 505.57 a7.5 7.5 0 1 0 15 0 a7.5 7.5 0 1 0 -15 0zM1302.8 543.07 a7.5 7.5 0 1 0 15 0 a7.5 7.5 0 1 0 -15 0zM1302.8 618.07 a7.5 7.5 0 1 0 15 0 a7.5 7.5 0 1 0 -15 0zM1237.85 655.57 a7.5 7.5 0 1 0 15 0 a7.5 7.5 0 1 0 -15 0zM1172.9 618.07 a7.5 7.5 0 1 0 15 0 a7.5 7.5 0 1 0 -15 0zM1302.81 -56.93 a7.5 7.5 0 1 0 15 0 a7.5 7.5 0 1 0 -15 0zM1367.76 -19.43 a7.5 7.5 0 1 0 15 0 a7.5 7.5 0 1 0 -15 0zM1367.76 55.57 a7.5 7.5 0 1 0 15 0 a7.5 7.5 0 1 0 -15 0zM1302.81 93.07 a7.5 7.5 0 1 0 15 0 a7.5 7.5 0 1 0 -15 0zM1367.76 505.57 a7.5 7.5 0 1 0 15 0 a7.5 7.5 0 1 0 -15 0zM1432.71 543.07 a7.5 7.5 0 1 0 15 0 a7.5 7.5 0 1 0 -15 0zM1432.71 618.07 a7.5 7.5 0 1 0 15 0 a7.5 7.5 0 1 0 -15 0zM1367.76 655.57 a7.5 7.5 0 1 0 15 0 a7.5 7.5 0 1 0 -15 0zM1302.81 618.07 a7.5 7.5 0 1 0 15 0 a7.5 7.5 0 1 0 -15 0zM1302.81 543.07 a7.5 7.5 0 1 0 15 0 a7.5 7.5 0 1 0 -15 0zM1432.71 -56.93 a7.5 7.5 0 1 0 15 0 a7.5 7.5 0 1 0 -15 0zM1497.67 -19.43 a7.5 7.5 0 1 0 15 0 a7.5 7.5 0 1 0 -15 0zM1497.67 55.57 a7.5 7.5 0 1 0 15 0 a7.5 7.5 0 1 0 -15 0zM1432.71 93.07 a7.5 7.5 0 1 0 15 0 a7.5 7.5 0 1 0 -15 0z" fill="#03305d"></path><path d="M20.95 -38.02L64.25 -13.02L64.25 36.98L20.95 61.98L-22.35 36.98L-22.35 -13.02zM20.95 111.98L64.25 136.98L64.25 186.98L20.95 211.98L-22.35 186.98L-22.35 136.98zM64.25 336.98L107.56 361.98L107.56 411.98L64.25 436.98L20.95 411.98L20.95 361.98zM64.25 486.98L107.56 511.98L107.56 561.98L64.25 586.98L20.95 561.98L20.95 511.98zM150.86 36.98L194.16 61.98L194.16 111.98L150.86 136.98L107.56 111.98L107.56 61.98zM107.56 111.98L150.86 136.98L150.86 186.98L107.56 211.98L64.25 186.98L64.25 136.98zM150.86 186.98L194.16 211.98L194.16 261.98L150.86 286.98L107.56 261.98L107.56 211.98zM150.86 336.98L194.16 361.98L194.16 411.98L150.86 436.98L107.56 411.98L107.56 361.98zM107.56 411.98L150.86 436.98L150.86 486.98L107.56 511.98L64.25 486.98L64.25 436.98zM150.86 486.98L194.16 511.98L194.16 561.98L150.86 586.98L107.56 561.98L107.56 511.98zM194.16 -38.02L237.46 -13.02L237.46 36.98L194.16 61.98L150.86 36.98L150.86 -13.02zM194.16 111.98L237.46 136.98L237.46 186.98L194.16 211.98L150.86 186.98L150.86 136.98zM280.76 -38.02L324.07 -13.02L324.07 36.98L280.76 61.98L237.46 36.98L237.46 -13.02zM324.07 36.98L367.37 61.98L367.37 111.98L324.07 136.98L280.76 111.98L280.76 61.98zM280.76 261.98L324.07 286.98L324.07 336.98L280.76 361.98L237.46 336.98L237.46 286.98zM324.07 336.98L367.37 361.98L367.37 411.98L324.07 436.98L280.76 411.98L280.76 361.98zM280.76 411.98L324.07 436.98L324.07 486.98L280.76 511.98L237.46 486.98L237.46 436.98zM324.07 486.98L367.37 511.98L367.37 561.98L324.07 586.98L280.76 561.98L280.76 511.98zM410.67 36.98L453.98 61.98L453.98 111.98L410.67 136.98L367.37 111.98L367.37 61.98zM367.37 411.98L410.67 436.98L410.67 486.98L367.37 511.98L324.07 486.98L324.07 436.98zM453.98 111.98L497.28 136.98L497.28 186.98L453.98 211.98L410.67 186.98L410.67 136.98zM453.98 261.98L497.28 286.98L497.28 336.98L453.98 361.98L410.67 336.98L410.67 286.98zM497.28 336.98L540.58 361.98L540.58 411.98L497.28 436.98L453.98 411.98L453.98 361.98zM453.98 411.98L497.28 436.98L497.28 486.98L453.98 511.98L410.67 486.98L410.67 436.98zM497.28 486.98L540.58 511.98L540.58 561.98L497.28 586.98L453.98 561.98L453.98 511.98zM540.58 -38.02L583.88 -13.02L583.88 36.98L540.58 61.98L497.28 36.98L497.28 -13.02zM583.88 36.98L627.19 61.98L627.19 111.98L583.88 136.98L540.58 111.98L540.58 61.98zM583.88 186.98L627.19 211.98L627.19 261.98L583.88 286.98L540.58 261.98L540.58 211.98zM583.88 486.98L627.19 511.98L627.19 561.98L583.88 586.98L540.58 561.98L540.58 511.98zM670.49 186.98L713.79 211.98L713.79 261.98L670.49 286.98L627.19 261.98L627.19 211.98zM627.19 261.98L670.49 286.98L670.49 336.98L627.19 361.98L583.88 336.98L583.88 286.98zM670.49 486.98L713.79 511.98L713.79 561.98L670.49 586.98L627.19 561.98L627.19 511.98zM713.79 -38.02L757.09 -13.02L757.09 36.98L713.79 61.98L670.49 36.98L670.49 -13.02zM757.09 486.98L800.4 511.98L800.4 561.98L757.09 586.98L713.79 561.98L713.79 511.98zM800.4 -38.02L843.7 -13.02L843.7 36.98L800.4 61.98L757.09 36.98L757.09 -13.02zM800.4 111.98L843.7 136.98L843.7 186.98L800.4 211.98L757.09 186.98L757.09 136.98zM800.4 261.98L843.7 286.98L843.7 336.98L800.4 361.98L757.09 336.98L757.09 286.98zM800.4 411.98L843.7 436.98L843.7 486.98L800.4 511.98L757.09 486.98L757.09 436.98zM930.3 336.98L973.61 361.98L973.61 411.98L930.3 436.98L887 411.98L887 361.98zM930.3 486.98L973.61 511.98L973.61 561.98L930.3 586.98L887 561.98L887 511.98zM973.61 261.98L1016.91 286.98L1016.91 336.98L973.61 361.98L930.3 336.98L930.3 286.98zM1016.91 336.98L1060.21 361.98L1060.21 411.98L1016.91 436.98L973.61 411.98L973.61 361.98zM973.61 411.98L1016.91 436.98L1016.91 486.98L973.61 511.98L930.3 486.98L930.3 436.98zM1016.91 486.98L1060.21 511.98L1060.21 561.98L1016.91 586.98L973.61 561.98L973.61 511.98zM1103.51 36.98L1146.82 61.98L1146.82 111.98L1103.51 136.98L1060.21 111.98L1060.21 61.98zM1103.51 186.98L1146.82 211.98L1146.82 261.98L1103.51 286.98L1060.21 261.98L1060.21 211.98zM1060.21 411.98L1103.51 436.98L1103.51 486.98L1060.21 511.98L1016.91 486.98L1016.91 436.98zM1103.51 486.98L1146.82 511.98L1146.82 561.98L1103.51 586.98L1060.21 561.98L1060.21 511.98zM1146.82 -38.02L1190.12 -13.02L1190.12 36.98L1146.82 61.98L1103.51 36.98L1103.51 -13.02zM1146.82 111.98L1190.12 136.98L1190.12 186.98L1146.82 211.98L1103.51 186.98L1103.51 136.98zM1190.12 336.98L1233.42 361.98L1233.42 411.98L1190.12 436.98L1146.82 411.98L1146.82 361.98zM1233.42 -38.02L1276.72 -13.02L1276.72 36.98L1233.42 61.98L1190.12 36.98L1190.12 -13.02zM1276.72 36.98L1320.03 61.98L1320.03 111.98L1276.72 136.98L1233.42 111.98L1233.42 61.98zM1363.33 36.98L1406.63 61.98L1406.63 111.98L1363.33 136.98L1320.03 111.98L1320.03 61.98zM1320.03 111.98L1363.33 136.98L1363.33 186.98L1320.03 211.98L1276.72 186.98L1276.72 136.98zM1363.33 336.98L1406.63 361.98L1406.63 411.98L1363.33 436.98L1320.03 411.98L1320.03 361.98zM1320.03 411.98L1363.33 436.98L1363.33 486.98L1320.03 511.98L1276.72 486.98L1276.72 436.98zM1406.63 261.98L1449.93 286.98L1449.93 336.98L1406.63 361.98L1363.33 336.98L1363.33 286.98zM1449.93 336.98L1493.24 361.98L1493.24 411.98L1449.93 436.98L1406.63 411.98L1406.63 361.98zM1406.63 411.98L1449.93 436.98L1449.93 486.98L1406.63 511.98L1363.33 486.98L1363.33 436.98z" stroke="rgba(6, 80, 156, 0.93)" stroke-width="2"></path></g><defs><mask id="SvgjsMask1000"><rect width="1440" height="560" fill="#ffffff"></rect></mask></defs></svg>